<?xml version="1.0" encoding="UTF-8" standalone="no"?>
<!DOCTYPE svg PUBLIC "-//W3C//DTD SVG 1.1//EN" "http://www.w3.org/Graphics/SVG/1.1/DTD/svg11.dtd">
<svg version="1.1" width="600.0px" height="360.0px" viewBox="0 0 600 360"
    xmlns="http://www.w3.org/2000/svg" xmlns:xl="http://www.w3.org/1999/xlink">
  <g stroke="#000" stroke-width="3">
    <rect x="15" y="162" width="570" height="102" fill="#70B8D8"/>
    <rect x="15" y="264" width="570" height="12" fill="#9090A8"/>
    <rect x="96" y="132" width="78" height="30" fill="#90A890"/>
    <rect x="426" y="132" width="78" height="30" fill="#90A890"/>
    <rect x="222" y="138" width="159" height="24" fill="#C8C890"/>
    <path fill="#A8A298" d="M222,138 l9,-30 l141,0 l9,30 z"/>
    <path fill="#D48080" d="M72,162 v30 c0,15 6,21 30,21 h102 c24,0 30,-6 30,-21 v-30 z"/>
    <path fill="#D48080" d="M528,162 v30 c0,15 -6,21 -30,21 h-102 c-24,0 -30,-6 -30,-21 v-30 z"/>
    <path d="M135,132 v-32"/>
    <circle cx="135" cy="90" r="10" fill="none"/>
    <path d="M465,132 v-32"/>
    <circle cx="465" cy="90" r="10" fill="none"/>
    <path d="M300,108 v-47"/>
    <circle cx="300" cy="51" r="10" fill="none"/>
    <path d="M255,276 v23"/>
    <circle cx="255" cy="309" r="10" fill="none"/>
    <path fill="none" d="M195,54 C213,69 201,144 234,150"/>
    <path fill="none" d="M237,210 h126 M237,210 l6,-3 v6 z M363,210 l-6,-3 v6 z"/>
    <path fill="none" d="M234,180 h57 M291,180 l-6,-3 v6 z"/>
  </g>
  <g font-family="Verdana" font-size="27" font-style="italic" fill="#000" stroke="none" text-anchor="end">
    <text x="147" y="192">n+</text>
    <text x="480" y="192">n+</text>
    <text x="258" y="246">p</text>
    <text x="315" y="186">x</text>
    <text x="300" y="237">L</text>
    <text x="120" y="81">Source</text>
    <text x="450" y="81">Drain</text>
    <text x="285" y="42">Gate</text>
    <text x="240" y="339">Body</text>
    <text x="189" y="57">Oxide</text>
  </g>
</svg>